# Blender v2.79 (sub 0) OBJ File: ''
# www.blender.org
mtllib Modelepelle.mtl
o Cylindre.001_Cylindre.002
v 0.000000 4.388589 -0.233599
v 0.000000 4.378771 -0.202126
v 0.254254 4.314227 -0.229742
v 0.246821 4.305217 -0.198085
v 0.464841 4.141837 -0.225383
v 0.452120 4.136346 -0.193835
v 0.615194 3.939105 -0.218863
v 0.604699 3.937463 -0.187815
v 0.732763 3.689546 -0.208899
v 0.727826 3.690639 -0.176223
v 0.812359 3.376957 -0.184539
v 0.811096 3.382060 -0.148374
v 0.838073 3.000906 -0.154989
v 0.838490 3.014459 -0.094644
v 0.804162 2.678414 -0.097708
v 0.807004 2.697698 -0.008247
v 0.543016 2.500100 -0.104881
v 0.575797 2.509677 0.047854
v 0.106066 2.500000 -0.106066
v 0.106066 2.500000 0.106066
v -0.106066 2.500000 -0.106066
v -0.106066 2.500000 0.106066
v -0.543016 2.500100 -0.104881
v -0.575797 2.509677 0.047854
v -0.804162 2.678414 -0.097708
v -0.807004 2.697698 -0.008247
v -0.838073 3.000906 -0.154989
v -0.838490 3.014459 -0.094644
v -0.812359 3.376957 -0.184539
v -0.811096 3.382060 -0.148374
v -0.732763 3.689546 -0.208899
v -0.727826 3.690639 -0.176223
v -0.615194 3.939105 -0.218863
v -0.604699 3.937463 -0.187815
v -0.464841 4.141837 -0.225383
v -0.452120 4.136346 -0.193835
v -0.254254 4.314227 -0.229742
v -0.246821 4.305217 -0.198085
v -0.150000 2.500000 -0.000000
v 0.150000 2.500000 0.000000
v 0.000000 -2.500000 -0.150000
v 0.000000 2.500000 -0.106066
v 0.106066 -2.500000 -0.106066
v 0.150000 -2.500000 0.000000
v 0.106066 -2.500000 0.106066
v 0.000000 2.500000 0.106066
v -0.000000 -2.500000 0.150000
v -0.106066 -2.500000 0.106066
v -0.150000 -2.500000 -0.000000
v -0.106066 -2.500000 -0.106066
vt 0.888786 0.605775
vt 0.895551 0.605417
vt 0.905782 0.637337
vt 0.899169 0.638702
vt 0.909399 0.259386
vt 0.915766 0.261042
vt 0.910458 0.288339
vt 0.903972 0.287270
vt 0.905483 0.319009
vt 0.899041 0.318452
vt 0.900945 0.356028
vt 0.894177 0.355738
vt 0.898852 0.401341
vt 0.891326 0.401497
vt 0.901425 0.454449
vt 0.888786 0.455377
vt 0.915766 0.515993
vt 0.891798 0.511940
vt 0.930182 0.242254
vt 0.905637 0.241596
vt 0.889418 0.198177
vt 0.930726 0.201459
vt 0.896502 0.139441
vt 0.917772 0.146618
vt 0.940137 0.141272
vt 0.888786 0.123946
vt 0.899146 0.109210
vt 0.921511 0.103864
vt 0.942781 0.111041
vt 0.941459 0.126157
vt 0.902349 0.050312
vt 0.943927 0.050508
vt 0.926016 0.008566
vt 0.950497 0.009966
vt 0.942192 0.263707
vt 0.966063 0.259386
vt 0.953158 0.321083
vt 0.940500 0.320296
vt 0.951824 0.374213
vt 0.944295 0.374141
vt 0.954973 0.419496
vt 0.948213 0.419863
vt 0.960373 0.456460
vt 0.953946 0.457089
vt 0.966063 0.487070
vt 0.959603 0.488212
vt 0.121291 0.020772
vt 0.171371 0.008566
vt 0.222917 0.017370
vt 0.266861 0.040027
vt 0.300251 0.067336
vt 0.328057 0.101720
vt 0.348282 0.145314
vt 0.357605 0.197926
vt 0.357605 0.259768
vt 0.297309 0.279266
vt 0.212056 0.277999
vt 0.190248 0.279126
vt 0.168385 0.279461
vt 0.083706 0.286417
vt 0.020976 0.271037
vt 0.012367 0.209484
vt 0.014322 0.156494
vt 0.028383 0.111752
vt 0.051273 0.075671
vt 0.080706 0.046260
vt 0.899074 0.533126
vt 0.905782 0.534677
vt 0.897000 0.568709
vt 0.890123 0.568008
vt 0.538248 0.991434
vt 0.486817 0.978727
vt 0.445538 0.952411
vt 0.417015 0.922261
vt 0.395796 0.885695
vt 0.383145 0.840406
vt 0.382338 0.786499
vt 0.391842 0.729784
vt 0.452092 0.713800
vt 0.538936 0.720975
vt 0.560761 0.721849
vt 0.582585 0.722724
vt 0.670044 0.722533
vt 0.727231 0.743224
vt 0.727231 0.800319
vt 0.717456 0.853802
vt 0.697351 0.897779
vt 0.670187 0.932406
vt 0.636835 0.960077
vt 0.591451 0.982920
vt 0.795642 0.009422
vt 0.795642 0.717857
vt 0.774213 0.717002
vt 0.774213 0.008566
vt 0.751965 0.717689
vt 0.751965 0.009253
vt 0.218033 0.991072
vt 0.239897 0.990737
vt 0.261705 0.989610
vt 0.864053 0.009253
vt 0.864053 0.717689
vt 0.841805 0.717002
vt 0.841805 0.008566
vt 0.820376 0.717857
vt 0.820376 0.009422
vt 0.987633 0.561105
vt 0.970904 0.572697
vt 0.947244 0.572698
vt 0.930515 0.561110
vt 0.930515 0.544719
vt 0.947245 0.533128
vt 0.970904 0.533126
vt 0.987633 0.544715
vt 0.642077 0.010315
vt 0.598428 0.008566
vt 0.620238 0.009611
vn 0.2653 0.9150 0.3041
vn 0.5888 0.7265 0.3544
vn 0.7452 0.5727 0.3416
vn 0.8749 0.4336 0.2156
vn 0.9640 0.2581 0.0636
vn 0.9975 0.0707 -0.0049
vn 0.9948 -0.1016 0.0006
vn 0.5974 -0.8019 0.0077
vn 0.0131 -0.9996 0.0266
vn 0.0000 -1.0000 0.0000
vn -0.0131 -0.9996 0.0266
vn -0.5974 -0.8019 0.0077
vn -0.9948 -0.1016 0.0006
vn -0.9975 0.0707 -0.0049
vn -0.9640 0.2581 0.0636
vn -0.8749 0.4336 0.2156
vn -0.7452 0.5727 0.3416
vn 0.0000 0.1616 0.9869
vn -0.5888 0.7265 0.3544
vn -0.2653 0.9150 0.3041
vn -0.0000 -0.0755 -0.9971
vn 0.9239 0.0000 -0.3827
vn 0.9239 -0.0000 0.3827
vn 0.2028 0.0043 0.9792
vn -0.2028 0.0043 0.9792
vn -0.9239 0.0000 0.3827
vn -0.9239 0.0000 -0.3827
vn -0.0000 0.0044 -1.0000
usemtl Matériau
s off
f 1/1/1 2/2/1 4/3/1 3/4/1
f 3/5/2 4/6/2 6/7/2 5/8/2
f 5/8/3 6/7/3 8/9/3 7/10/3
f 7/10/4 8/9/4 10/11/4 9/12/4
f 9/12/5 10/11/5 12/13/5 11/14/5
f 11/14/6 12/13/6 14/15/6 13/16/6
f 13/16/7 14/15/7 16/17/7 15/18/7
f 15/19/8 16/20/8 18/21/8 17/22/8
f 17/22/9 18/21/9 20/23/9 40/24/9 19/25/9
f 19/25/10 40/24/10 20/23/10 46/26/10 22/27/10 39/28/10 21/29/10 42/30/10
f 21/29/11 39/28/11 22/27/11 24/31/11 23/32/11
f 23/32/12 24/31/12 26/33/12 25/34/12
f 25/35/13 26/36/13 28/37/13 27/38/13
f 27/38/14 28/37/14 30/39/14 29/40/14
f 29/40/15 30/39/15 32/41/15 31/42/15
f 31/42/16 32/41/16 34/43/16 33/44/16
f 33/44/17 34/43/17 36/45/17 35/46/17
f 4/47/18 2/48/18 38/49/18 36/50/18 34/51/18 32/52/18 30/53/18 28/54/18 26/55/18 24/56/18 22/57/18 46/58/18 20/59/18 18/60/18 16/61/18 14/62/18 12/63/18 10/64/18 8/65/18 6/66/18
f 35/67/19 36/68/19 38/69/19 37/70/19
f 37/70/20 38/69/20 2/2/20 1/1/20
f 1/71/21 3/72/21 5/73/21 7/74/21 9/75/21 11/76/21 13/77/21 15/78/21 17/79/21 19/80/21 42/81/21 21/82/21 23/83/21 25/84/21 27/85/21 29/86/21 31/87/21 33/88/21 35/89/21 37/90/21
f 43/91/22 19/92/22 40/93/22 44/94/22
f 44/94/23 40/93/23 20/95/23 45/96/23
f 45/97/24 20/59/24 46/58/24 47/98/24
f 47/98/25 46/58/25 22/57/25 48/99/25
f 48/100/26 22/101/26 39/102/26 49/103/26
f 49/103/27 39/102/27 21/104/27 50/105/27
f 41/106/10 43/107/10 44/108/10 45/109/10 47/110/10 48/111/10 49/112/10 50/113/10
f 50/114/28 21/82/28 42/81/28 19/80/28 43/115/28 41/116/28
l 41 42
